<svg width="1146" height="723" viewBox="0 0 1146 723" fill="none" xmlns="http://www.w3.org/2000/svg">
<path opacity="0.7" d="M92.4994 -330.531C264.809 -502.782 620.491 -427.404 885.446 -162.451C1150.43 102.507 1225.77 458.223 1053.52 630.49C881.874 802.127 528.19 728.009 263.564 465.51C262.549 464.502 261.534 463.492 260.521 462.48C-4.4333 197.526 -79.7803 -158.22 92.4994 -330.531ZM1050.69 627.68C1221.83 456.556 1146.75 103.026 883.36 -160.365C619.943 -423.756 266.46 -498.842 95.338 -327.693C-0.41166 -231.957 -19.1005 -79.1277 29.1345 83.0692C-14.3213 -71.9816 5.20992 -217.326 97.0171 -309.153C264.662 -476.827 610.844 -403.448 868.644 -145.649C1126.44 112.179 1199.79 458.338 1032.14 625.97C940.281 717.848 794.816 737.355 639.659 693.802C801.946 742.139 954.885 723.481 1050.69 627.68ZM228.481 310.564C261.507 277.511 329.67 291.881 380.396 342.604C431.122 393.328 445.489 461.48 412.436 494.52C395.137 511.836 368.195 516.13 339.169 509.009C375.321 520.894 409.738 517.438 430.976 496.2C467.475 459.7 451.371 384.206 395.081 327.914C338.792 271.622 263.3 255.52 226.796 292.019C205.572 313.261 202.113 347.645 213.973 383.768C206.877 354.768 211.179 327.851 228.481 310.564ZM233.028 331.916C261.447 303.523 320.022 315.865 363.564 359.406C407.161 403.004 419.501 461.595 391.113 489.987C376.341 504.752 353.445 508.511 328.746 502.616C360.584 513.294 390.955 510.388 409.623 491.708C441.489 459.827 427.44 393.905 378.279 344.746C329.089 295.556 263.154 281.477 231.288 313.372C212.586 332.074 209.697 362.521 220.439 394.422C214.494 369.665 218.239 346.707 233.028 331.916ZM237.546 353.266C261.333 329.454 310.288 339.824 346.732 376.265C383.176 412.705 393.518 461.682 369.731 485.464C369.361 485.834 368.985 486.196 368.602 486.549C368.471 486.669 368.34 486.783 368.208 486.9C367.953 487.13 367.699 487.36 367.439 487.584C367.278 487.723 367.111 487.854 366.946 487.99C366.712 488.187 366.48 488.384 366.241 488.57C366.061 488.712 365.875 488.847 365.693 488.987C365.465 489.161 365.239 489.339 365.008 489.507C364.814 489.648 364.614 489.784 364.417 489.922C364.192 490.081 363.968 490.242 363.741 490.395C363.535 490.535 363.323 490.666 363.114 490.801C362.891 490.946 362.669 491.095 362.443 491.235C362.216 491.375 362.002 491.497 361.782 491.629C361.561 491.76 361.338 491.897 361.113 492.023C360.887 492.149 360.653 492.276 360.419 492.402C360.198 492.523 359.977 492.648 359.753 492.765C359.512 492.89 359.268 493.008 359.026 493.129C358.805 493.239 358.586 493.353 358.362 493.457C358.112 493.577 357.857 493.689 357.603 493.804C357.383 493.904 357.166 494.008 356.946 494.104C356.683 494.218 356.42 494.324 356.157 494.433C355.939 494.523 355.723 494.616 355.5 494.703C355.227 494.81 354.951 494.91 354.675 495.013C354.459 495.093 354.245 495.177 354.027 495.254C353.743 495.355 353.455 495.451 353.168 495.544C352.954 495.615 352.743 495.69 352.527 495.758C352.231 495.851 351.932 495.938 351.633 496.026C351.423 496.092 351.214 496.158 351.003 496.215C350.696 496.301 350.384 496.38 350.074 496.461C349.866 496.515 349.661 496.573 349.452 496.625C349.134 496.704 348.811 496.775 348.49 496.848C348.286 496.894 348.084 496.943 347.881 496.987C347.552 497.058 347.215 497.122 346.881 497.185C346.683 497.223 346.486 497.265 346.285 497.301C345.942 497.367 345.595 497.419 345.249 497.476C345.052 497.507 344.863 497.541 344.669 497.572C344.312 497.625 343.954 497.672 343.595 497.72C343.407 497.744 343.22 497.773 343.031 497.796C342.662 497.84 342.291 497.878 341.92 497.917C341.737 497.935 341.556 497.957 341.373 497.974C340.991 498.009 340.608 498.04 340.223 498.066C340.047 498.079 339.872 498.095 339.698 498.106C339.303 498.131 338.909 498.15 338.51 498.168C338.341 498.176 338.172 498.186 338.002 498.193C337.596 498.208 337.186 498.216 336.776 498.224C336.614 498.224 336.453 498.232 336.29 498.234C335.871 498.239 335.448 498.234 335.024 498.234C334.87 498.234 334.716 498.234 334.561 498.234C334.128 498.227 333.692 498.214 333.256 498.199C333.109 498.194 332.963 498.191 332.816 498.185C332.37 498.168 331.921 498.143 331.473 498.119C331.334 498.111 331.196 498.105 331.057 498.095C330.597 498.065 330.137 498.03 329.677 497.99C329.545 497.978 329.414 497.97 329.282 497.958C328.811 497.916 328.337 497.867 327.863 497.814C327.74 497.801 327.619 497.79 327.495 497.776C327.011 497.721 326.525 497.659 326.038 497.594C325.924 497.579 325.81 497.566 325.697 497.55C325.2 497.484 324.701 497.406 324.202 497.329L323.886 497.281C323.377 497.199 322.866 497.11 322.354 497.018C322.258 497.001 322.161 496.985 322.064 496.967C321.543 496.871 321.021 496.77 320.497 496.663C320.409 496.645 320.321 496.629 320.235 496.61C319.702 496.5 319.168 496.385 318.634 496.263C318.554 496.245 318.474 496.229 318.395 496.21C318.34 496.198 318.285 496.183 318.231 496.171C345.793 505.675 372.172 503.314 388.309 487.168C415.538 459.954 403.488 403.609 361.454 361.544C319.419 319.539 263.074 307.486 235.872 334.718C219.758 350.832 217.365 377.112 226.782 404.591C222.129 384.248 225.359 365.439 237.546 353.266ZM242.067 374.586C261.215 355.464 300.615 363.752 329.929 393.07C359.243 422.388 367.532 461.8 348.414 480.919C338.759 490.564 323.951 493.244 307.886 489.779C310.784 490.811 313.662 491.683 316.522 492.397L316.532 492.397C317.235 492.572 317.936 492.738 318.635 492.893L318.68 492.903C321.43 493.519 324.21 493.987 327.01 494.303L327.146 494.318C327.774 494.387 328.399 494.447 329.022 494.499L329.2 494.514C331.221 494.678 333.211 494.75 335.169 494.732L335.204 494.732C335.816 494.726 336.423 494.709 337.028 494.685L337.325 494.671C337.854 494.647 338.38 494.616 338.902 494.579L339.234 494.554C339.783 494.51 340.328 494.46 340.869 494.402L341.063 494.383C342.296 494.246 343.51 494.068 344.706 493.85C344.789 493.835 344.871 493.818 344.955 493.803C345.446 493.711 345.934 493.611 346.42 493.505C346.563 493.474 346.707 493.44 346.849 493.408C347.28 493.311 347.708 493.207 348.133 493.097C348.284 493.058 348.434 493.021 348.585 492.98C349.026 492.863 349.463 492.737 349.899 492.608C350.016 492.574 350.134 492.542 350.25 492.505C351.352 492.166 352.431 491.788 353.488 491.371C353.619 491.321 353.742 491.267 353.869 491.215C354.259 491.057 354.646 490.893 355.031 490.725C355.196 490.652 355.359 490.576 355.524 490.501C355.872 490.342 356.217 490.179 356.559 490.012C356.726 489.929 356.892 489.848 357.058 489.765C357.413 489.585 357.762 489.399 358.109 489.209C358.249 489.133 358.391 489.06 358.529 488.982C359.49 488.443 360.427 487.865 361.338 487.248C361.476 487.154 361.612 487.056 361.749 486.961C362.062 486.742 362.374 486.52 362.681 486.292C362.841 486.174 363 486.053 363.158 485.931C363.442 485.712 363.723 485.49 364.001 485.266C364.158 485.139 364.314 485.012 364.47 484.881C364.759 484.638 365.044 484.389 365.324 484.138C365.456 484.021 365.587 483.906 365.719 483.787C366.125 483.414 366.527 483.033 366.919 482.641C389.515 460.045 379.522 413.288 344.612 378.352C309.733 343.472 262.949 333.478 240.353 356.076C239.959 356.47 239.577 356.87 239.207 357.277C239.088 357.408 238.974 357.54 238.857 357.671C238.605 357.954 238.356 358.238 238.113 358.525C237.981 358.681 237.856 358.836 237.729 358.993C237.503 359.271 237.282 359.552 237.064 359.836C236.943 359.995 236.821 360.153 236.703 360.313C236.475 360.62 236.253 360.931 236.035 361.245C235.939 361.382 235.841 361.517 235.747 361.657C235.131 362.567 234.552 363.503 234.013 364.465C233.936 364.602 233.862 364.744 233.786 364.883C233.596 365.231 233.411 365.581 233.23 365.934C233.147 366.099 233.065 366.266 232.983 366.433C232.815 366.775 232.652 367.119 232.493 367.467C232.418 367.631 232.343 367.795 232.269 367.961C232.101 368.344 231.941 368.73 231.781 369.119C231.729 369.25 231.674 369.374 231.623 369.504C231.207 370.56 230.829 371.639 230.491 372.739C230.454 372.856 230.425 372.973 230.387 373.088C230.256 373.524 230.131 373.962 230.014 374.402C229.973 374.553 229.935 374.704 229.896 374.855C229.788 375.279 229.684 375.706 229.586 376.136C229.553 376.28 229.52 376.423 229.488 376.569C229.383 377.051 229.284 377.537 229.193 378.026C229.177 378.112 229.159 378.197 229.143 378.283C228.924 379.478 228.746 380.691 228.611 381.924C228.604 381.989 228.598 382.051 228.591 382.114C228.533 382.656 228.483 383.202 228.44 383.751C228.431 383.862 228.423 383.973 228.415 384.084C228.377 384.607 228.346 385.133 228.322 385.661C228.317 385.762 228.312 385.862 228.308 385.962C228.284 386.562 228.267 387.165 228.262 387.772C228.262 387.789 228.262 387.805 228.262 387.822C228.242 389.777 228.314 391.765 228.478 393.787C228.483 393.846 228.489 393.905 228.494 393.965C228.545 394.586 228.605 395.21 228.674 395.836L228.689 395.979C229.005 398.777 229.472 401.555 230.086 404.303C230.086 404.318 230.094 404.334 230.097 404.349C230.252 405.046 230.417 405.745 230.592 406.446C230.592 406.452 230.595 406.459 230.597 406.466C231.309 409.318 232.181 412.194 233.211 415.095C229.752 399.03 232.43 384.224 242.067 374.586L242.067 374.586ZM246.614 395.965C261.099 381.453 290.938 387.739 313.098 409.902C335.29 432.062 341.546 461.901 327.035 476.402C319.951 483.491 309.19 485.617 297.451 483.35C316.32 490.412 334.577 489.142 345.602 478.126C363.563 460.149 355.569 422.967 327.815 395.186C300.034 367.402 262.838 359.439 244.876 377.399C233.831 388.444 232.574 406.728 239.676 425.631C237.381 413.857 239.501 403.067 246.614 395.965ZM251.134 417.289C260.983 407.44 281.262 411.667 296.296 426.675C311.359 441.738 315.56 462.002 305.711 471.866C301.172 476.4 294.434 477.962 287.02 476.866C301.551 482.748 315.768 482.042 324.222 473.581C337.548 460.268 331.608 432.647 310.983 412.021C290.388 391.391 262.722 385.453 249.424 398.781C240.947 407.241 240.246 421.479 246.138 436.019C245.031 428.586 246.586 421.836 251.135 417.288L251.134 417.289ZM255.652 438.668C260.897 433.452 271.554 435.627 279.464 443.536C287.373 451.445 289.577 462.132 284.361 467.363C282.349 469.375 279.534 470.284 276.383 470.198C286.634 475.066 296.961 475.008 302.902 469.057C311.591 460.365 307.68 442.317 294.181 428.82C280.681 415.322 262.635 411.406 253.944 420.098C248 426.063 247.94 436.388 252.811 446.637C252.725 443.484 253.638 440.671 255.654 438.667L255.652 438.668ZM223.988 289.213C261.676 251.525 339.376 267.923 397.225 325.802C455.051 383.628 471.473 461.337 433.784 499.027C413.846 518.957 382.702 523.761 349.224 515.302C389.834 528.564 428.462 524.633 452.324 500.78C493.49 459.629 475.356 374.532 411.912 311.088C348.498 247.643 263.384 229.51 222.219 270.676C198.366 294.546 194.435 333.192 207.709 373.816C199.241 340.32 204.044 309.159 223.99 289.213L223.988 289.213ZM219.41 267.864C261.736 225.538 349.048 243.992 414.027 308.971C479.006 373.949 497.458 461.264 455.134 503.59C432.726 526.003 397.678 531.369 360.009 521.799C404.796 536.137 447.3 531.614 473.644 505.269C519.445 459.484 499.284 364.853 428.715 294.285C358.145 223.716 263.502 203.553 217.733 249.324C191.318 275.753 186.836 318.427 201.306 363.347C191.608 325.541 196.932 290.344 219.41 267.864L219.41 267.864ZM214.922 246.541C261.851 199.552 358.724 220.035 430.859 292.138C502.961 364.274 523.415 461.132 476.483 508.092C451.444 533.117 412.235 538.997 370.157 528.115C419.392 543.797 466.095 538.774 495.053 509.815C545.488 459.379 523.269 355.176 445.546 277.422C367.849 199.727 263.646 177.564 213.21 228.001C184.285 256.913 179.238 303.535 194.856 352.703C184.016 310.673 189.906 271.529 214.924 246.541L214.922 246.541ZM210.401 225.161C261.997 173.594 368.43 196.078 447.661 275.336C526.918 354.597 549.428 461.062 497.864 512.64C470.266 540.238 426.962 546.637 380.523 534.491C434.074 551.409 484.832 545.859 516.347 514.337C571.416 459.279 547.198 345.443 462.378 260.62C377.527 175.799 263.735 151.581 208.664 206.621C177.073 238.228 171.568 289.154 188.632 342.849C176.376 296.288 182.743 252.842 210.403 225.161L210.401 225.161ZM205.854 203.841C262.083 147.582 378.134 172.117 464.492 258.477C550.877 344.864 575.386 460.916 519.157 517.145C488.95 547.353 441.487 554.252 390.631 540.779C393.322 541.626 396.006 542.421 398.683 543.163L398.957 543.239C399.732 543.453 400.507 543.662 401.28 543.868L401.717 543.983C402.448 544.175 403.178 544.363 403.908 544.548L404.368 544.663C405.115 544.85 405.862 545.033 406.608 545.212L406.964 545.298C407.815 545.501 408.664 545.698 409.513 545.889L409.529 545.894C412.174 546.491 414.807 547.035 417.428 547.525L417.745 547.584C418.49 547.722 419.232 547.855 419.971 547.985L420.443 548.067C421.144 548.187 421.843 548.304 422.54 548.417L423.034 548.496C423.747 548.61 424.459 548.719 425.169 548.825L425.573 548.885C426.379 549.004 427.184 549.116 427.987 549.224L428.079 549.237C430.648 549.579 433.203 549.869 435.742 550.104L436.137 550.14C436.828 550.202 437.519 550.261 438.209 550.316L438.745 550.357C439.396 550.407 440.047 550.453 440.696 550.496L441.253 550.532C441.914 550.573 442.575 550.611 443.233 550.644L443.711 550.669C444.455 550.705 445.196 550.737 445.933 550.763L446.137 550.772C447.806 550.83 449.466 550.864 451.118 550.873C451.158 550.873 451.199 550.873 451.24 550.873C451.993 550.876 452.744 550.875 453.493 550.869L453.984 550.863C454.613 550.855 455.241 550.845 455.869 550.831L456.476 550.815C457.07 550.799 457.663 550.78 458.255 550.758L458.88 550.734C459.481 550.708 460.081 550.679 460.679 550.647C460.865 550.637 461.051 550.628 461.237 550.617C461.905 550.579 462.572 550.537 463.236 550.49C463.345 550.482 463.454 550.475 463.564 550.468C465.148 550.354 466.722 550.215 468.286 550.052C468.38 550.043 468.473 550.032 468.566 550.021C469.231 549.951 469.893 549.877 470.553 549.797C470.746 549.774 470.938 549.749 471.131 549.725C471.694 549.655 472.256 549.583 472.817 549.506C473.04 549.476 473.264 549.444 473.487 549.412C474.021 549.337 474.554 549.259 475.084 549.178L475.767 549.072C476.305 548.987 476.842 548.899 477.377 548.809L478.004 548.702C478.596 548.598 479.186 548.491 479.773 548.379C479.919 548.352 480.065 548.325 480.211 548.298C481.701 548.012 483.177 547.702 484.639 547.367C484.778 547.336 484.915 547.302 485.054 547.27C485.631 547.137 486.207 546.999 486.782 546.858L487.425 546.696C487.924 546.57 488.421 546.442 488.916 546.311C489.155 546.246 489.392 546.184 489.63 546.12C490.103 545.991 490.576 545.859 491.048 545.725C491.289 545.657 491.529 545.588 491.77 545.519C492.248 545.38 492.723 545.238 493.197 545.094C493.421 545.028 493.647 544.958 493.87 544.888C494.389 544.727 494.906 544.563 495.421 544.394C495.593 544.338 495.766 544.284 495.939 544.227C497.322 543.77 498.691 543.288 500.048 542.781C500.216 542.716 500.384 542.65 500.553 542.59C501.053 542.401 501.552 542.209 502.048 542.014C502.274 541.925 502.499 541.833 502.724 541.744C503.162 541.569 503.6 541.39 504.038 541.209C504.28 541.108 504.522 541.007 504.761 540.904C505.18 540.726 505.599 540.546 506.015 540.363C506.258 540.257 506.5 540.15 506.742 540.042C507.164 539.854 507.583 539.662 508 539.468C508.23 539.363 508.46 539.258 508.686 539.151C509.141 538.937 509.593 538.72 510.043 538.498C510.229 538.408 510.415 538.32 510.6 538.228C511.87 537.599 513.126 536.946 514.367 536.271C514.549 536.172 514.729 536.07 514.91 535.97C515.345 535.729 515.778 535.487 516.209 535.242C516.433 535.114 516.656 534.983 516.879 534.855C517.266 534.63 517.65 534.404 518.033 534.175C518.269 534.034 518.504 533.892 518.738 533.749C519.108 533.523 519.477 533.295 519.845 533.065C520.079 532.918 520.313 532.771 520.546 532.623C520.917 532.385 521.288 532.145 521.657 531.903C521.877 531.758 522.098 531.614 522.318 531.467C522.717 531.201 523.113 530.93 523.508 530.659C523.692 530.533 523.877 530.409 524.059 530.281C525.211 529.478 526.346 528.652 527.464 527.801C527.642 527.667 527.818 527.527 527.994 527.391C528.374 527.098 528.752 526.805 529.128 526.506C529.338 526.339 529.546 526.17 529.756 526C530.096 525.726 530.434 525.449 530.772 525.17C530.99 524.989 531.206 524.808 531.423 524.625C531.75 524.349 532.075 524.071 532.399 523.791C532.614 523.605 532.829 523.418 533.043 523.23C533.371 522.942 533.697 522.65 534.021 522.356C534.223 522.174 534.426 521.992 534.626 521.808C534.977 521.486 535.325 521.158 535.673 520.829C535.841 520.67 536.011 520.514 536.178 520.354C536.689 519.863 537.196 519.367 537.7 518.865C597.406 459.145 571.158 335.763 479.184 243.814C387.233 151.835 263.856 125.591 204.15 185.296C203.648 185.8 203.151 186.308 202.661 186.82C202.5 186.986 202.345 187.156 202.186 187.324C201.857 187.672 201.529 188.021 201.207 188.375C201.022 188.576 200.84 188.778 200.658 188.98C200.364 189.305 200.072 189.631 199.782 189.959C199.594 190.173 199.408 190.387 199.223 190.602C198.942 190.926 198.664 191.252 198.388 191.579C198.205 191.795 198.024 192.012 197.843 192.23C197.563 192.567 197.286 192.907 197.011 193.249C196.843 193.457 196.673 193.664 196.507 193.874C196.207 194.252 195.911 194.633 195.617 195.015C195.482 195.19 195.345 195.363 195.212 195.541C194.786 196.1 194.365 196.664 193.95 197.232C193.942 197.243 193.935 197.255 193.926 197.267C193.522 197.823 193.123 198.382 192.73 198.946C192.603 199.13 192.478 199.316 192.352 199.499C192.08 199.893 191.81 200.29 191.543 200.689C191.397 200.908 191.253 201.129 191.109 201.346C190.866 201.716 190.625 202.087 190.386 202.459C190.238 202.691 190.091 202.924 189.946 203.157C189.714 203.526 189.485 203.897 189.258 204.269C189.116 204.502 188.975 204.735 188.835 204.968C188.603 205.354 188.375 205.743 188.149 206.132C188.022 206.353 187.893 206.572 187.766 206.793C187.516 207.231 187.269 207.671 187.026 208.114C186.93 208.288 186.832 208.461 186.737 208.635C186.06 209.877 185.407 211.135 184.777 212.407C184.685 212.593 184.598 212.779 184.507 212.965C184.288 213.417 184.07 213.869 183.854 214.324C183.748 214.549 183.643 214.775 183.539 215.003C183.342 215.424 183.151 215.846 182.963 216.27C182.855 216.509 182.749 216.748 182.645 216.988C182.46 217.408 182.278 217.831 182.098 218.255C181.998 218.492 181.898 218.73 181.798 218.968C181.614 219.411 181.433 219.856 181.255 220.302C181.168 220.52 181.079 220.737 180.992 220.959C180.79 221.472 180.593 221.988 180.401 222.506C180.343 222.657 180.283 222.808 180.227 222.961C179.721 224.319 179.239 225.692 178.781 227.081C178.725 227.252 178.671 227.423 178.615 227.595C178.447 228.112 178.281 228.632 178.119 229.153C178.053 229.372 177.987 229.592 177.918 229.81C177.772 230.292 177.629 230.774 177.488 231.256C177.42 231.489 177.353 231.723 177.286 231.957C177.15 232.439 177.016 232.921 176.886 233.402C176.823 233.631 176.761 233.863 176.701 234.089C176.566 234.598 176.435 235.109 176.307 235.622C176.256 235.823 176.204 236.022 176.155 236.223C176.006 236.829 175.861 237.437 175.721 238.047C175.695 238.154 175.669 238.261 175.645 238.368C175.309 239.837 174.998 241.32 174.712 242.814C174.684 242.957 174.659 243.101 174.631 243.243C174.519 243.836 174.411 244.43 174.307 245.025C174.272 245.226 174.241 245.427 174.203 245.628C174.11 246.173 174.02 246.721 173.934 247.271C173.9 247.49 173.866 247.707 173.833 247.921C173.749 248.467 173.669 249.015 173.592 249.564C173.562 249.774 173.533 249.982 173.505 250.191C173.425 250.775 173.349 251.36 173.277 251.947C173.256 252.116 173.234 252.285 173.211 252.455C173.124 253.168 173.043 253.882 172.969 254.599C172.965 254.641 172.96 254.682 172.955 254.725C172.792 256.297 172.652 257.881 172.538 259.475C172.53 259.579 172.524 259.684 172.517 259.788C172.47 260.46 172.426 261.133 172.385 261.807C172.375 261.98 172.367 262.154 172.357 262.327C172.325 262.94 172.295 263.556 172.27 264.174C172.262 264.366 172.254 264.558 172.246 264.751C172.223 265.364 172.203 265.979 172.187 266.596C172.182 266.776 172.177 266.957 172.173 267.138C172.158 267.8 172.146 268.462 172.139 269.126C172.139 269.258 172.135 269.384 172.134 269.514C172.113 271.96 172.146 274.426 172.234 276.912C172.234 276.974 172.239 277.036 172.241 277.098C172.269 277.846 172.301 278.595 172.337 279.346C172.344 279.489 172.353 279.632 172.36 279.775C172.395 280.454 172.434 281.135 172.476 281.817C172.487 281.981 172.497 282.145 172.508 282.309C172.552 282.987 172.6 283.667 172.654 284.346C172.665 284.496 172.676 284.644 172.689 284.794C172.747 285.53 172.81 286.267 172.878 287.007C172.886 287.093 172.893 287.179 172.901 287.265C173.138 289.821 173.429 292.392 173.776 294.98C173.776 295.006 173.783 295.032 173.786 295.057C173.895 295.869 174.01 296.683 174.129 297.497C174.146 297.613 174.163 297.728 174.181 297.843C174.289 298.578 174.403 299.314 174.521 300.051C174.542 300.19 174.565 300.328 174.586 300.468C174.705 301.201 174.828 301.935 174.955 302.67C174.976 302.793 174.998 302.915 175.021 303.036C175.16 303.835 175.304 304.634 175.454 305.435C175.463 305.484 175.471 305.533 175.481 305.581C175.975 308.222 176.524 310.875 177.127 313.54C177.127 313.54 177.127 313.545 177.127 313.547C177.321 314.403 177.52 315.259 177.725 316.117C177.748 316.215 177.773 316.314 177.795 316.411C177.981 317.183 178.171 317.957 178.365 318.732L178.458 319.101C178.653 319.871 178.852 320.642 179.055 321.414L179.139 321.729C179.362 322.57 179.59 323.411 179.822 324.252L179.843 324.328C180.592 327.025 181.394 329.731 182.25 332.444C168.747 281.552 175.632 234.05 205.855 203.841L205.854 203.841ZM201.334 182.491C262.199 121.625 387.781 148.16 481.292 241.701C574.837 335.218 601.371 460.8 540.505 521.678C507.798 554.389 456.389 561.854 401.313 547.247C463.531 566.641 522.424 560.027 559.076 523.375C623.418 459.032 595.115 326.093 496.009 226.988C396.903 127.883 263.968 99.5777 199.625 163.921C162.921 200.626 156.339 259.636 175.837 321.955C161.137 266.776 168.574 215.253 201.335 182.492L201.334 182.491ZM196.816 161.109C262.285 95.6385 397.488 124.202 498.154 224.873C598.794 325.511 627.357 460.714 561.885 526.184C526.581 561.49 471.059 569.474 411.61 553.59C478.191 574.257 541.186 567.126 580.398 527.908C649.374 458.93 619.072 316.415 512.811 210.156C406.582 103.953 264.054 73.6212 195.107 142.597C155.913 181.793 148.759 244.709 169.357 311.219C153.536 251.833 161.545 196.382 196.817 161.11L196.816 161.109ZM192.269 139.759C262.401 69.653 407.161 100.302 514.926 208.071C622.72 315.837 653.37 460.584 583.208 530.717C545.31 568.632 485.627 577.113 421.756 559.899C492.763 581.902 559.939 574.277 601.777 532.441C675.387 458.844 643.029 306.683 529.672 193.354C416.285 79.9664 264.169 47.638 190.586 121.218C148.794 163.01 141.127 230.097 163.04 301.024C145.903 237.235 154.4 177.629 192.271 139.759L192.269 139.759ZM187.747 118.439C262.517 43.6388 416.867 76.318 531.787 191.21C646.707 306.161 679.355 460.48 604.587 535.253C564.162 575.684 500.501 584.723 432.392 566.353C507.624 589.502 578.736 581.32 623.067 536.988C701.343 458.744 666.956 297.066 546.473 176.552C425.96 56.0385 264.254 21.6813 186.009 99.8983C141.617 144.306 133.474 215.559 156.74 290.909C138.272 222.696 147.271 158.919 187.749 118.439L187.747 118.439ZM183.2 97.1156C262.635 17.6527 426.54 52.3572 548.589 174.407C670.638 296.458 705.343 460.364 625.907 539.815C582.861 582.856 514.971 592.367 442.381 572.612C522.108 597.166 597.473 588.51 644.448 541.553C727.33 458.64 690.971 287.359 563.307 159.69C435.669 32.0513 264.371 -4.3354 181.462 78.5747C134.566 125.473 125.877 200.706 150.309 280.319C130.666 207.845 140.215 140.088 183.203 97.1162L183.2 97.1156ZM178.652 75.7659C262.751 -8.33418 436.217 28.3998 565.421 157.605C694.595 286.751 731.328 460.263 647.259 544.363C601.791 589.824 530.129 599.937 453.468 579.19C537.268 604.706 616.405 595.425 665.799 546.03C753.315 458.528 714.873 277.686 580.107 142.894C445.314 8.12659 264.489 -30.3158 176.972 57.2013C127.549 106.608 118.293 185.803 143.865 269.661C123.078 192.96 133.176 121.26 178.653 75.7669L178.652 75.7659ZM174.161 54.3569C262.838 -34.2871 445.894 4.41321 582.225 140.773C718.554 277.104 757.286 460.177 668.61 548.851C620.528 596.952 544.688 607.575 463.593 585.49C551.814 612.349 635.128 602.581 687.148 550.577C779.298 458.409 738.829 267.978 596.939 126.057C455.017 -15.8658 264.574 -56.3075 172.422 35.8751C120.366 87.9148 110.627 171.331 137.585 259.652C115.415 178.461 126.015 102.506 174.163 54.3576L174.161 54.3569ZM169.614 33.0368C262.923 -60.3035 455.627 -19.5139 599.054 123.942C742.509 267.4 783.268 460.061 689.958 553.387C639.288 604.066 559.352 615.203 473.909 591.85C566.492 619.984 653.903 609.693 708.496 555.096C805.283 458.309 762.785 258.303 613.741 109.285C464.696 -39.7924 264.692 -82.2897 167.905 14.4972C113.278 69.1234 103.007 156.604 131.2 249.246C107.794 163.742 118.913 83.7374 169.615 33.0375L169.614 33.0368ZM165.096 11.658C263.071 -86.317 465.274 -43.4447 615.857 107.139C766.466 257.724 809.284 459.946 711.311 557.92C658.099 611.132 574.129 622.808 484.386 598.246C581.278 627.589 672.727 616.761 729.852 559.644C831.272 458.193 786.746 248.626 630.545 92.4526C474.371 -63.7231 264.809 -108.277 163.358 -6.82607C106.163 50.3542 95.3852 141.953 124.868 238.975C100.173 149.079 111.809 64.9442 165.097 11.6587L165.096 11.658ZM160.545 -9.66598C263.154 -112.276 474.95 -67.3726 632.659 90.3375C790.368 248.048 835.241 459.83 732.631 562.44C676.809 618.278 588.635 630.446 494.437 604.523C595.76 635.224 691.396 623.904 751.142 564.149C857.228 458.062 810.676 238.952 647.375 75.6209C484.045 -87.6805 264.923 -134.233 158.837 -28.1465C99.037 31.6543 87.7497 127.413 118.556 228.84C92.5268 134.532 104.653 46.2304 160.547 -9.66531L160.545 -9.66598ZM156.028 -30.9562C263.267 -138.2 484.654 -91.3559 649.491 73.4786C814.324 238.347 861.197 459.732 753.954 566.962C695.567 625.348 603.358 638.046 504.863 610.903C610.518 642.838 710.222 630.987 772.522 568.685C883.244 457.962 834.603 229.249 664.178 58.8214C493.752 -111.633 265.039 -160.248 154.318 -49.5244C91.9971 12.813 80.1646 112.562 112.138 218.251C84.9523 119.702 97.6331 27.4378 156.028 -30.9588L156.028 -30.9562ZM151.509 -52.3354C263.386 -164.241 494.301 -115.286 666.292 56.706C838.284 228.698 887.212 459.614 775.333 571.494C714.451 632.384 618.312 645.651 515.602 617.382C625.45 650.421 729.067 638 793.873 573.202C909.225 457.848 858.559 219.546 681.008 41.9893C503.454 -135.593 265.153 -186.204 149.797 -70.8762C84.8801 -5.9736 72.5213 97.8942 105.781 207.962C77.3129 105.036 90.5174 8.65488 151.51 -52.3373L151.509 -52.3354ZM146.989 -73.6856C263.502 -190.2 504.034 -139.271 683.123 39.8743C862.266 218.992 913.194 459.486 796.681 576C733.091 639.597 632.562 653.316 525.238 623.542C639.706 658.111 747.719 645.247 815.251 577.723C935.211 457.747 882.545 209.898 697.809 25.1602C513.13 -159.547 265.236 -212.215 145.279 -92.224C77.7545 -24.6988 64.8995 83.3322 99.4849 197.812C69.6878 90.4651 83.3885 -10.0866 146.99 -73.6876L146.989 -73.6856ZM142.472 -95.0651C263.592 -216.216 513.681 -163.202 699.926 23.0718C886.199 209.346 939.212 459.396 818.062 580.547C751.909 646.693 647.337 660.936 535.704 629.933C654.468 665.72 766.512 652.331 836.573 582.27C961.199 457.631 906.504 200.191 714.67 8.35134C522.835 -183.488 265.357 -238.207 140.732 -113.58C70.7503 -43.5979 57.3151 68.281 92.9546 186.902C62.0982 75.4173 76.3956 -28.9901 142.472 -95.067L142.472 -95.0651ZM137.924 -116.385C263.707 -242.173 523.387 -187.189 716.755 6.21316C910.156 199.612 965.141 459.295 839.382 585.068C770.706 653.744 662.115 668.536 546.191 636.335C669.26 673.33 785.338 659.399 857.922 586.803C987.185 457.528 930.46 190.518 731.471 -8.47202C532.513 -207.468 265.473 -264.192 136.186 -134.927C63.5097 -62.234 49.6327 54.0343 86.7994 177.265C54.4323 61.1692 69.1721 -47.62 137.924 -116.387L137.924 -116.385ZM133.373 -137.741C263.823 -268.189 533.063 -211.12 733.587 -10.5906C934.112 189.939 991.182 459.177 860.738 589.629C789.403 660.972 676.491 676.209 556.011 642.546C683.618 680.994 804.004 666.597 879.278 591.323C1013.17 457.439 954.424 180.839 748.306 -25.3085C542.162 -231.429 265.564 -290.15 131.667 -156.282C56.4945 -81.1082 42.0545 39.0999 80.3442 166.556C46.8389 46.2414 62.1237 -66.4897 133.373 -137.74L133.373 -137.741ZM128.856 -159.091C263.939 -294.146 542.767 -235.047 750.419 -27.3934C958.041 180.26 1017.14 459.064 882.085 594.131C808.292 667.919 691.589 683.76 567.037 649.097C698.734 688.547 822.905 673.556 900.596 595.854C1039.13 457.323 978.349 171.165 765.106 -42.1107C551.866 -255.356 265.678 -316.133 127.147 -177.602C49.526 -99.9809 34.4952 24.0358 73.8033 155.6C39.2684 31.1805 55.1466 -85.3636 128.856 -159.089L128.856 -159.091ZM124.335 -180.411C264.025 -320.102 552.444 -259.034 767.221 -44.2254C982.029 170.584 1043.12 458.961 903.405 598.664C827.03 675.041 706.2 691.391 577.252 655.42C713.349 696.175 841.672 680.67 921.974 600.361C1065.14 457.207 1002.31 161.429 781.937 -58.9122C561.538 -279.312 265.793 -342.119 122.655 -198.981C42.3122 -118.636 26.8155 9.7438 67.6165 145.887C31.5959 16.8839 47.9329 -104.006 124.335 -180.41L124.335 -180.411ZM119.817 -201.793C264.17 -346.118 562.091 -282.964 784.052 -61.0564C1005.98 160.907 1069.14 458.848 924.783 603.17C845.733 682.227 720.584 699.047 587.081 661.632C727.71 703.836 860.338 687.872 943.323 604.894C1091.1 457.11 1026.26 151.752 798.739 -75.773C571.272 -303.298 265.908 -368.134 118.107 -220.333C35.0129 -137.237 19.1116 -4.36857 61.5232 136.466C23.9058 2.75582 40.6601 -122.635 119.816 -201.792L119.817 -201.793ZM115.3 -223.142C264.256 -372.104 571.823 -306.95 800.883 -77.8862C1029.94 151.178 1095.1 458.759 946.136 607.72C864.565 689.284 735.46 706.66 597.731 668.095C742.597 711.453 879.179 694.934 964.676 609.444C1117.11 457.008 1050.22 142.078 815.571 -92.5733C580.949 -327.227 265.995 -394.116 113.561 -241.651C27.9917 -156.082 11.5259 -19.3131 55.0481 125.717C16.317 -12.1841 33.6369 -141.479 115.3 -223.142L115.3 -223.142ZM110.748 -244.493C264.346 -398.089 581.5 -330.909 817.686 -94.7208C1053.9 141.497 1121.08 458.64 967.486 612.263C883.487 696.256 750.608 714.233 608.799 674.663C757.751 719.009 898.104 701.876 985.996 613.975C1143.1 456.887 1074.21 132.4 832.403 -109.41C590.625 -351.22 266.141 -420.107 109.039 -263.035C21.2702 -175.265 4.05658 -35.2039 48.1366 113.488C8.82721 -28.0512 26.8898 -160.631 110.748 -244.491L110.748 -244.493ZM106.231 -265.843C264.462 -424.104 591.203 -354.867 834.517 -111.524C1077.83 131.819 1147.07 458.539 988.806 616.8C902.09 703.51 764.76 721.911 618.289 680.78C771.891 726.699 916.703 709.146 1007.38 618.479C1169.08 456.77 1098.11 122.725 849.205 -126.211C600.302 -375.086 266.256 -446.062 104.552 -284.356C14.0355 -193.856 -3.60784 -49.35 42.0301 103.995C1.15412 -42.2171 19.6361 -179.247 106.231 -265.841L106.231 -265.843ZM101.74 -287.166C264.606 -450.032 600.878 -378.794 851.32 -128.325C1101.82 122.146 1173.02 458.438 1010.18 621.289C919.775 711.692 775.947 729.975 623.024 685.529C783.305 734.989 934.879 717.624 1029.34 623.158C1195.82 456.686 1122.82 112.762 866.529 -143.532C610.267 -399.824 266.315 -472.829 99.8556 -306.341C5.15328 -211.652 -12.0722 -59.5696 37.8311 101.145C-7.04595 -52.2048 11.1015 -196.526 101.74 -287.165L101.74 -287.166ZM263.245 460.953C269.539 466.85 277.623 468.465 281.55 464.538C285.608 460.48 283.725 452.008 277.35 445.621C271.008 439.276 262.547 437.421 258.49 441.476C254.567 445.399 256.147 453.459 262.026 459.736C262.229 459.945 262.427 460.157 262.634 460.364C262.842 460.571 263.041 460.757 263.245 460.954L263.245 460.953Z" fill="#3222A7"/>
</svg>
