<svg width="24" height="24" viewBox="0 0 24 24" fill="none" xmlns="http://www.w3.org/2000/svg">
<mask id="path-1-inside-1" fill="white">
<path fill-rule="evenodd" clip-rule="evenodd" d="M5.56266 16.937C2.1457 13.5199 2.14579 7.97978 5.56287 4.56276C8.97994 1.14575 14.5201 1.14575 17.9371 4.56276C21.3542 7.97978 21.3543 13.5199 17.9373 16.937L13.6941 21.1803C12.6203 22.2529 10.8807 22.2529 9.80673 21.1801L5.56266 16.937ZM14 10.75C14 9.50736 12.9926 8.5 11.75 8.5C10.5074 8.5 9.5 9.50736 9.5 10.75C9.5 11.9926 10.5074 13 11.75 13C12.9926 13 14 11.9926 14 10.75Z"/>
</mask>
<path fill-rule="evenodd" clip-rule="evenodd" d="M5.56266 16.937C2.1457 13.5199 2.14579 7.97978 5.56287 4.56276C8.97994 1.14575 14.5201 1.14575 17.9371 4.56276C21.3542 7.97978 21.3543 13.5199 17.9373 16.937L13.6941 21.1803C12.6203 22.2529 10.8807 22.2529 9.80673 21.1801L5.56266 16.937ZM14 10.75C14 9.50736 12.9926 8.5 11.75 8.5C10.5074 8.5 9.5 9.50736 9.5 10.75C9.5 11.9926 10.5074 13 11.75 13C12.9926 13 14 11.9926 14 10.75Z" fill="white"/>
<path d="M5.56287 4.56276L4.50222 3.50209L5.56287 4.56276ZM5.56266 16.937L4.50197 17.9977L4.50212 17.9978L5.56266 16.937ZM17.9371 4.56276L18.9978 3.50209L17.9371 4.56276ZM17.9373 16.937L18.998 17.9977L18.998 17.9977L17.9373 16.937ZM13.6941 21.1803L14.7542 22.2415L14.7547 22.241L13.6941 21.1803ZM9.80673 21.1801L8.7462 22.2409L8.74661 22.2413L9.80673 21.1801ZM4.50222 3.50209C0.499358 7.50488 0.499246 13.9947 4.50197 17.9977L6.62334 15.8764C3.79215 13.0451 3.79223 8.45467 6.62352 5.62343L4.50222 3.50209ZM18.9978 3.50209C14.9949 -0.500698 8.50508 -0.500698 4.50222 3.50209L6.62352 5.62343C9.45481 2.79219 14.0452 2.79219 16.8765 5.62343L18.9978 3.50209ZM18.998 17.9977C23.0008 13.9947 23.0006 7.50489 18.9978 3.50209L16.8765 5.62343C19.7078 8.45467 19.7079 13.0451 16.8766 15.8764L18.998 17.9977ZM14.7547 22.241L18.998 17.9977L16.8767 15.8764L12.6334 20.1196L14.7547 22.241ZM8.74661 22.2413C10.4061 23.8991 13.0947 23.8993 14.7542 22.2415L12.6339 20.1191C12.146 20.6066 11.3552 20.6067 10.8669 20.1189L8.74661 22.2413ZM4.50212 17.9978L8.7462 22.2409L10.8673 20.1193L6.62319 15.8762L4.50212 17.9978ZM11.75 10C12.1642 10 12.5 10.3358 12.5 10.75H15.5C15.5 8.67893 13.8211 7 11.75 7V10ZM11 10.75C11 10.3358 11.3358 10 11.75 10V7C9.67893 7 8 8.67893 8 10.75H11ZM11.75 11.5C11.3358 11.5 11 11.1642 11 10.75H8C8 12.8211 9.67893 14.5 11.75 14.5V11.5ZM12.5 10.75C12.5 11.1642 12.1642 11.5 11.75 11.5V14.5C13.8211 14.5 15.5 12.8211 15.5 10.75H12.5Z" fill="#0A0A0A" mask="url(#path-1-inside-1)"/>
</svg>
